#N canvas 1016 243 1920 1064 12;
#X obj 105 43 netreceive -u -b 3333;
#X obj 105 67 unpack f f f f f f f f;
#X floatatom 270 118 5 0 0 0 - - - 0;
#X obj 239 267 mtof;
#X obj 237 409 dac~;
#X obj 239 322 osc~;
#X obj 385 178 vsl 19 162 0 1 0 0 empty empty empty 0 -9 0 12 #fcfcfc #000000 #000000 0 1;
#X floatatom 336 275 5 0 0 0 - - - 0;
#X obj 336 298 mtof;
#X obj 336 322 osc~;
#X obj 148 165 vsl 19 162 0 1 0 0 empty empty empty 0 -9 0 12 #fcfcfc #000000 #000000 0 1;
#X obj 239 346 *~;
#X obj 336 346 *~;
#X obj 270 165 line~;
#X obj 194 135 loadbang;
#X obj 270 189 snapshot~;
#X floatatom 270 213 5 0 0 0 - - - 0;
#X msg 270 141 \$1 10;
#X obj 194 159 metro 10;
#X obj 61 67 print;
#X connect 0 0 1 0;
#X connect 0 0 19 0;
#X connect 1 7 2 0;
#X connect 2 0 17 0;
#X connect 3 0 5 0;
#X connect 5 0 11 0;
#X connect 6 0 12 1;
#X connect 7 0 8 0;
#X connect 8 0 9 0;
#X connect 9 0 12 0;
#X connect 10 0 11 1;
#X connect 11 0 4 0;
#X connect 11 0 4 1;
#X connect 12 0 4 0;
#X connect 12 0 4 1;
#X connect 13 0 15 0;
#X connect 14 0 18 0;
#X connect 15 0 16 0;
#X connect 16 0 3 0;
#X connect 17 0 13 0;
#X connect 18 0 15 0;
